# xmcd CD database file
#
# Track frame offsets:
#	150
#	13778
#	28977
#	49324
#	67008
#	81880
#	99576
#	114067
#	126837
#	140301
#	153554
#	173888
#	188317
#	201981
#	218583
#	234025
#	248643
#	261454
#
# Disc length: 3681 seconds
#
# Revision: 3
# Processed by: cddbd v1.5.2PL0 Copyright (c) Steve Scherf et al.
# Submitted via: CDex 1.81
#
DISCID=f40e5f12
DTITLE=Percy Sledge - My Special Prayer
DYEAR=1969
DGENRE=Blues
TTITLE0=My Special Prayer
TTITLE1=Out Of Left Field
TTITLE2=The Good Love
TTITLE3=Blue Water
TTITLE4=Warm And Tender Love
TTITLE5=If Loving You Is Wrong
TTITLE6=Love Among People
TTITLE7=It Tears Me Up
TTITLE8=Take Time To Know Her
TTITLE9=When A Man Loves A Woman
TTITLE10=You Send Me
TTITLE11=Hard To Be Friends
TTITLE12=I Believe In You
TTITLE13=Make It Good, And Make It Last
TTITLE14=Walkin In The Sun
TTITLE15=I'll Be Your Everything
TTITLE16=Behind Closed Doors
TTITLE17=If This Is The Last Time
EXTD=YEAR: 1969
EXTT0=
EXTT1=
EXTT2=
EXTT3=
EXTT4=
EXTT5=
EXTT6=
EXTT7=
EXTT8=
EXTT9=
EXTT10=
EXTT11=
EXTT12=
EXTT13=
EXTT14=
EXTT15=
EXTT16=
EXTT17=
PLAYORDER=
